<?xml version="1.0" encoding="utf-8"?>
<!-- Generator: Adobe Illustrator 27.8.1, SVG Export Plug-In . SVG Version: 6.00 Build 0)  -->
<svg version="1.1" id="Layer_1" xmlns="http://www.w3.org/2000/svg" xmlns:xlink="http://www.w3.org/1999/xlink" x="0px" y="0px"
	 viewBox="0 0 551 455" enable-background="new 0 0 551 455" xml:space="preserve">
<g id="CareOne_mark" transform="translate(0.683 0.514)">
	<g id="Layer_1-2" transform="translate(0 0)">
		<g id="Group_3337">
			<path id="Path_4826" fill="none" stroke="#C6DCE7" d="M127.6,166.8c29.3-58.2,99.4-84.9,170.6-70.8c-1.3-1-2.6-1.8-3.9-2.8
				c-56.9-39.4-124.1-45.8-169.1-20.6c-1.5-24.4-15.4-46.3-36.8-58.2C57.1-5.4,20-3.3,6.1,19.1s0,56.6,31.4,76.2
				C52.7,105.3,70.8,110,89,108.4c-25.2,44-12.1,104.2,29.6,151.6c-8.5-31.2-5.3-64.4,9-93.4"/>
			<path id="Path_4827" fill="none" stroke="#C6DCE7" d="M286.9,59c-1.5-1-2.8-2.1-4.4-3.1 M506,343.7
				c-16.3-10.8-35.5-16.2-55.1-15.7c0.5-1.3,1.3-2.3,1.8-3.3c42.7-84.2-4.1-193.8-104.5-244.5c-19.3-9.8-40-17-61.3-21.1
				c81.3,58.9,112,155.7,68.5,218.5c-44.3,63.8-148.5,68.2-233.2,9.8c-15.9-11-30.4-23.9-43.2-38.4c17.1,59.8,59,109.5,115.1,136.4
				c66.3,36.3,146.9,34,211.1-5.9c5.1,24.4,20.3,45.5,42,57.9c36.5,22.9,79,20.6,95.5-5.1c16.5-25.7,0-65.4-36.5-88.3"/>
		</g>
	</g>
</g>
</svg>
